# xmcd CD database file
#
# Track frame offsets:
#	151
#	12618
#	26539
#	37587
#	48429
#	58928
#	68861
#	82608
#	91806
#	107937
#	120948
#	132008
#	145206
#	157960
#	169745
#	184403
#
# Disc length: 2684 seconds
#
# Revision: 1
# Processed by: cddbd v1.4PL0 Copyright (c) Steve Scherf et al.
# Submitted via: CDex 1.40Beta9
#
DISCID=c80a7a10
DTITLE=Brennen Leigh - Lonesome, Wild and Blue
DYEAR=2002
DGENRE=Country
TTITLE0=Burlington Northern Line
TTITLE1=The Train Carrying Jimmy Rodgers Home
TTITLE2=Crazy Arms
TTITLE3=Cryin' My Eyes Out
TTITLE4=San Antonio Rose
TTITLE5=No Way Jose
TTITLE6=I'm Still In Love With You
TTITLE7=Moanin' The Blues
TTITLE8=I Can't Help Falling In Love With You
TTITLE9=Jesse James
TTITLE10=You're The Reason
TTITLE11=My Baby's Gone
TTITLE12=Middle Of The Night
TTITLE13=Gravel Road Blues
TTITLE14=Pieces On The Ground
TTITLE15=The Legend Of Benny Ambrose
EXTD=YEAR: 2002 ID3G: 2
EXTT0=
EXTT1=
EXTT2=
EXTT3=
EXTT4=
EXTT5=
EXTT6=
EXTT7=
EXTT8=
EXTT9=
EXTT10=
EXTT11=
EXTT12=
EXTT13=
EXTT14=
EXTT15=
PLAYORDER=
